<?xml version="1.0" encoding="utf-8"?>
<!-- Generator: Adobe Illustrator 16.0.3, SVG Export Plug-In . SVG Version: 6.00 Build 0)  -->
<!DOCTYPE svg PUBLIC "-//W3C//DTD SVG 1.1//EN" "http://www.w3.org/Graphics/SVG/1.1/DTD/svg11.dtd">
<svg version="1.1" id="Layer_1" xmlns="http://www.w3.org/2000/svg" xmlns:xlink="http://www.w3.org/1999/xlink" x="0px" y="0px"
	 width="1000.006px" height="833.336px" viewBox="499.998 83.331 1000.006 833.336"
	 enable-background="new 499.998 83.331 1000.006 833.336" xml:space="preserve">
<g>
	<g>
		<path d="M1488.729,418.987l-125.588-64.82l125.588-64.82c6.877-3.561,11.23-10.621,11.271-18.371
			c0.041-7.752-4.191-14.873-11.027-18.535l-312.5-166.666c-6.063-3.215-13.266-3.256-19.369-0.123L1000,166.739L842.895,85.653
			c-6.104-3.133-13.387-3.092-19.369,0.123l-312.5,166.666c-6.836,3.662-11.068,10.783-11.027,18.535s4.395,14.811,11.271,18.371
			l125.588,64.82l-125.586,64.818c-6.877,3.561-11.23,10.621-11.271,18.371s4.191,14.873,11.027,18.535l155.641,83.008v190.267
			c0,7.691,4.232,14.771,11.027,18.393l312.5,166.666c3.053,1.627,6.43,2.441,9.807,2.441s6.754-0.814,9.807-2.441l312.5-166.666
			c6.795-3.621,11.027-10.701,11.027-18.393V538.901l155.641-83.008c6.836-3.662,11.068-10.783,11.027-18.536
			C1499.959,429.608,1495.605,422.547,1488.729,418.987z M1166.504,127.686l267.822,142.842l-116.615,60.191l-272.287-140.535
			L1166.504,127.686z M565.674,270.53l267.822-142.844l121.08,62.498L682.289,330.719L565.674,270.53z M565.674,437.807
			l116.615-60.192l272.287,140.536l-121.08,62.497L565.674,437.807z M979.166,861.102L708.332,716.674V561.121l115.193,61.438
			c3.053,1.627,6.43,2.441,9.807,2.441c3.297,0,6.551-0.773,9.563-2.32l136.271-70.332V861.102z M1000,494.705L727.717,354.166
			L1000,213.629l272.283,140.539L1000,494.705z M1291.668,716.675l-270.834,144.428V552.348l136.271,70.332
			c3.012,1.547,6.266,2.32,9.563,2.32c3.377,0,6.754-0.814,9.807-2.441l115.193-61.438V716.675z M1166.504,580.648l-121.08-62.497
			l272.287-140.536l116.615,60.191L1166.504,580.648z"/>
	</g>
</g>
</svg>
